<?xml version="1.0" encoding="UTF-8"?>
<svg xmlns="http://www.w3.org/2000/svg" viewBox="0 0 500 500"><path fill="#006aff" fill-rule="evenodd" d="M250.3 500c-72.7 0-114.5-39.7-114.5-109V80.1c0-50.9 30.7-80.1 84.1-80.1C273.3 0 304 29.2 304 80.1l.6 280.7c0 29.6-19.3 48-50.3 48-31 0-50.3-18.4-50.3-47.9v-256c0-8.6 7.3-15.5 16.3-15.5s16.3 7 16.3 15.5v256c0 12.6 4.5 16.8 17.6 16.8 13.2 0 17.6-4.2 17.6-16.8l-.7-280.7c0-33.4-16.4-49-51.4-49-35.1 0-51.4 15.6-51.4 49V391c0 52.4 26.8 77.9 81.8 77.9 55.1 0 81.8-25.5 81.8-77.9l.3-287.5c0-8.6 7.3-15.5 16.3-15.5s16.3 7 16.3 15.6l-.3 287.5C364.8 460.3 323 500 250.3 500" clip-rule="evenodd" style="fill: #006aff;"/></svg>
