<?xml version="1.0" encoding="UTF-8"?>
<svg xmlns="http://www.w3.org/2000/svg" viewBox="0 0 500 500"><g fill="#006aff"><path d="M231.6 248.8h-44.4c-3 0-5.3 2.4-5.3 5.3v35.5c0 1.9 1.1 3.7 2.7 4.6 8.8 5.1 14.1 13.7 14.1 23 0 15-13.5 27.2-30.1 27.2s-30.1-12.2-30.1-27.2c0-9.3 5.3-17.9 14.1-23 1.7-.9 2.7-2.7 2.7-4.6V237c0-6.5 6-11.8 13.2-11.8h62.9c3 0 5.3-2.4 5.3-5.3v-28.8c0-3-2.4-5.3-5.3-5.3H104c-1.8 0-3.4.9-4.4 2.4-5.6 8.2-15.1 13.1-25.6 13.1-16.6-.1-30-12.3-30-27.3s13.5-27.2 30.1-27.2h.3c10 0 19.4 4.9 25.2 13.2 1 1.4 2.6 2.3 4.3 2.3h127.5c3 0 5.3-2.4 5.3-5.3v-34.3c0-3-2.4-5.3-5.3-5.3h-33.6c-1.8 0-3.4.9-4.4 2.4-5.6 8.2-15.1 13.1-25.6 13.1-16.6 0-30.1-12.2-30.1-27.2s13.5-27.2 30.1-27.2c10.2-.1 19.7 4.8 25.6 13.2 1 1.4 2.6 2.3 4.3 2.3h33.6c3 0 5.3-2.4 5.3-5.3V66.6c-.1-8.8-.1-17.7 0-26.4 0-.6-.1-1.2-.3-1.8-2.9-9-15.3-38.4-47-38.4-24.1 0-41.6 8-52.2 23.8-.9 1.4-1.1 3.1-.6 4.6.6 1.6 1.7 2.8 3.3 3.3 3.1 1.1 6.2 2.5 9.1 4.1 3.1 1.6 5.2 4.3 6 7.4.7 2.8.2 5.8-1.4 8.4-2.4 3.6-6.8 5.9-11.5 5.9-2.4 0-4.8-.6-6.9-1.8-5.1-2.7-10.9-4.1-18.9-4.3h-.2c-22.4 0-41.7 4.6-57.4 13.8C45.2 73 34.4 84 26.5 97.9c-13.7 24.1-15.8 51.1-15.8 65 0 11 1.7 49.1 23.8 77.7.4.4.6.7 1.1 1 5.6 4.2 13.4 6.7 22.9 7.4 10.5.8 18.6-.6 24.7-4.1 6.3-3.6 14.6-1.8 18.4 4 1.7 2.6 2.3 5.6 1.6 8.4-.7 3.1-2.8 5.8-5.8 7.5-8 4.5-18 7-29.8 7.5-1.9.1-3.7 1.3-4.6 3.1-.9 1.8-.6 3.9.6 5.5 2.1 2.7 5 4.7 8.2 5.7 3.7 1.4 6.8 4.2 8.3 7.6.8 1.9 1.6 4.6.4 7.6v.1c-1.9 4.8-6.5 8-11.6 8.1-1.4 0-2.7-.2-4-.6l-3.2-1.1c-15.8-5.7-25.9-17.5-26.8-31.6-.1-2.4-1.9-4.3-4.3-4.8-2.4-.4-4.7.7-5.8 2.8-13 26.1-14 54.3-14 62.2 0 14 2 40.9 15.5 65 7.8 13.9 18.2 24.9 31.2 32.6 15.3 9.1 34 13.7 55.8 13.8l.4.1h.5c.8 0 1.4-.1 1.9-.2H116.7c7.5.1 15-2.3 23.4-7.3 6.2-3.7 14.6-2.1 18.6 3.5 1.8 2.5 2.4 5.4 1.9 8.3-.7 3.2-2.6 5.9-5.6 7.7-4.7 2.8-9.8 5.2-15.4 7.2-1.6.6-2.8 1.8-3.3 3.3-.6 1.6-.4 3.3.6 4.6 10.5 16.1 28.2 24.3 52.6 24.3 29.1 0 43.2-26.1 46.6-34 .4-.6.5-1.4.5-2.1l.1-4.1c.1-8.8.2-22.1.2-26.4v-8.3c0-3-2.4-5.3-5.3-5.3H77.2C70 419.6 64 414.4 64 408l-.3-20.4c.1-.4.2-.8.2-1.3.1-2-.9-3.9-2.6-4.9-8.8-5.1-14-13.6-14-22.9 0-15 13.5-27.3 30.1-27.3s30.1 12.2 30.1 27.3c0 9.5-5.4 18.2-14.5 23.1-2 1.1-3.1 3.3-2.7 5.5l.1 3.7c.1 2.9 2.4 5.3 5.3 5.3h136c3 0 5.3-2.4 5.3-5.3V254.1c0-3-2.5-5.3-5.4-5.3zM463.8 257.1c-12.5-12.3-29.3-19.6-50.4-21.7-3.7-.4-7.1-2.1-9.3-4.8-1.9-2.4-2.7-5.2-2.4-8 .7-6.5 7.4-11.3 14.5-10.4h.1c18.8 1.9 35.8 7.5 50.4 16.7 1.3.8 2.8 1 4.2.6 1.4-.4 2.6-1.4 3.3-2.6 13.8-26.4 14.9-55.5 14.9-63.7 0-14-2-40.9-15.5-65-7.8-13.9-18.2-24.9-31.2-32.6-15.2-9.1-34-13.7-55.7-13.8h-.4c-25.1-.7-35.6 21.3-38.2 28.1l-.1.1-1.5 4.2V84c-1.6 4.9-6.9 8.4-12.7 8.4-1.4 0-2.7-.2-4-.6-3.5-1-6.4-3.3-8-6.3-1.4-2.6-1.6-5.5-.7-8.3L323 72c6.8-17.6 20.6-31.8 38-39 1.5-.6 2.6-1.8 3.1-3.3.5-1.5.3-3.1-.6-4.4C353.2 8.7 335.3.1 310.7.1c-29.1 0-43.1 26-46.7 34-.4.6-.5 1.4-.5 2.1-.1 6.8-.2 25.5-.2 30.6V157c0 3 2.4 5.3 5.3 5.3h110.6c3 0 5.3-2.4 5.3-5.3v-24.6c0-1.9-1.1-3.7-2.7-4.6-8.8-5.1-14-13.6-14-22.9 0-15 13.5-27.2 30-27.2 16.6 0 30.1 12.2 30.1 27.2 0 9.3-5.3 17.9-14.2 22.9-1.7.9-2.7 2.7-2.7 4.6v41.7c0 6.5-6 11.8-13.2 11.8H332c-3 0-5.3 2.4-5.3 5.3v53.1c0 2 1.2 3.9 3.1 4.8 4.6 2.1 8.5 5.6 11.5 9.8 1 1.5 2.6 2.4 4.4 2.4l85.9-.1h.1c3.5 0 6.8 1.3 9.4 3.6 2.4 2.1 3.7 5.1 3.7 8.1v52.6c0 1.9 1 3.7 2.6 4.6 8.8 5.1 14 13.7 14 22.9 0 15-13.5 27.3-30 27.3-16.6 0-30.1-12.3-30.1-27.3 0-9.3 5.3-17.9 14.2-23 1.7-.9 2.7-2.7 2.7-4.6V290c0-1.4-.6-2.8-1.6-3.8s-2.4-1.6-3.8-1.6l-67.4.1c-1.8 0-3.4.9-4.4 2.4-5.6 8.2-15.1 13-25.5 13-16.6 0-30.1-12.3-30.1-27.3 0-8.6 4.6-16.6 12.4-21.9 1.5-1 2.4-2.6 2.4-4.4v-55.3c0-3-2.4-5.3-5.3-5.3h-26.3c-3 0-5.3 2.4-5.3 5.3V366c0 3 2.4 5.3 5.3 5.3h37.1c1.8 0 3.4-.9 4.4-2.4 5.6-8.2 15.1-13.1 25.5-13.1 16.6 0 30.1 12.2 30.1 27.2s-13.5 27.3-30.1 27.3c-10.5 0-19.9-4.9-25.5-13.1-1-1.5-2.6-2.4-4.4-2.4h-37.1c-3 0-5.3 2.4-5.3 5.3V433.2c.1 3.6.1 18.2 0 26.3 0 .6.1 1.2.3 1.8 3.1 9 15.5 38.5 47.1 38.5 24.7 0 42.6-8.5 53-25.3.9-1.4 1.1-3 .6-4.5-.5-1.5-1.6-2.7-3.1-3.3-5.1-2.1-9.2-4.1-13-6.3-2.7-1.7-4.9-3.2-6.8-4.6-.1 0-.1-.1-.1-.1-.4-.3-.7-.5-1-.8-2.2-1.9-3.5-4.6-3.7-7.5-.2-2.8.7-5.6 2.6-7.8 4.9-5.3 13.1-6.2 19-1.9 1.6 1.1 3.2 2.3 4.9 3.3 7.9 4.8 15.8 7.3 22.9 7.3h.7c21.9-.4 40.7-5.2 56.1-14.5 12.9-7.8 23.4-18.7 31.1-32.5 13.5-24 15.5-50.6 15.5-64.3 0-11.4-1.8-50.9-25.1-79.5-.2-.1-.4-.2-.5-.4z" style="fill: #006aff;"/></g></svg>
