<?xml version="1.0" encoding="UTF-8"?>
<svg xmlns="http://www.w3.org/2000/svg" fill="none" viewBox="0 0 500 500"><path fill="#06F" d="M263.026 402.391V130.763l129.736 122.605c5.885 5.264 14.901 4.837 20.215-1.044 5.125-5.691 4.888-14.371-.569-19.731L258.566 87.223c-.665-.617-1.519-.949-2.278-1.47-.712-.475-1.376-1.044-2.183-1.376-1.708-.664-3.511-1.044-5.362-1.044h-.095c-1.803.048-3.559.427-5.267 1.091-.854.332-1.519.901-2.23 1.423-.712.474-1.566.759-2.231 1.376L87.83 229.985c-5.741 5.407-6.026 14.418-.617 20.157 0 0 0 .048.048.048 5.41 5.739 14.473 5.976 20.215.569L234.46 130.763v271.628c0 7.873 6.406 14.276 14.33 14.276 7.878 0 14.284-6.403 14.236-14.276" style="fill: #006aff;"/></svg>
