<?xml version="1.0" encoding="UTF-8"?>
<svg xmlns="http://www.w3.org/2000/svg" fill="none" viewBox="0 0 500 500"><path fill="#06F" d="M236.974 97.61v271.627L107.238 246.633c-5.885-5.265-14.9-4.838-20.215 1.043-5.125 5.692-4.888 14.371.57 19.731l153.841 145.371c.665.616 1.519.948 2.278 1.47.712.474 1.376 1.043 2.183 1.375 1.708.664 3.511 1.044 5.362 1.044h.095c1.803-.048 3.559-.427 5.267-1.091.854-.332 1.519-.901 2.23-1.423.712-.474 1.566-.759 2.231-1.375l151.09-142.763c5.741-5.407 6.026-14.418.617-20.157 0 0 0-.048-.048-.048-5.41-5.739-14.473-5.976-20.215-.569L265.54 369.237V97.61c0-7.874-6.406-14.277-14.33-14.277-7.878 0-14.284 6.403-14.236 14.277" style="fill: #006aff;"/></svg>
