<?xml version="1.0" encoding="UTF-8"?>
<svg xmlns="http://www.w3.org/2000/svg" viewBox="0 0 500 500"><path fill="#006aff" d="M250.5 498.5h-.4c-1.3 0-2.4 0-3.5-.1h-.4c-3.4-.2-6.8-.6-10.2-1.4-11.6-2.6-22.7-7.5-32.4-14.6-11.6-8.4-25.2-22.2-29.1-26.1-40.3-41.5-63.8-71-93.3-116.8-36.8-57.2-62.1-114.1-75.2-169C-8.2 110.9 3.5 61.4 38.9 31 59.4 13.4 87.4 2.9 117.7 1.3c31.9-1.6 65 6.5 95.7 23.5 10.4 5.8 21.2 12 32.9 18.9 2.3 1.3 5.2 1.3 7.6 0 11.6-7 22.4-13.1 33-19 30.6-17 63.7-25.1 95.6-23.4 30.3 1.6 58.3 12.1 78.8 29.8 35.4 30.3 47.1 79.9 32.9 139.6-13.1 54.8-38.4 111.6-75.3 169-29.2 45.4-52.6 74.7-92.3 115.7-.3.4-.6.7-.9 1.1-3.9 4-17.5 17.8-29 26.1-9.7 7-20.7 12-32.4 14.6-3.3.8-6.7 1.3-10.2 1.4h-.4c-1.1-.1-2.1-.1-3.2-.1zm-.4-28.4h2.1c1.8-.1 3.6-.4 5.4-.8l.4-.1c7.9-1.8 15.3-5.1 21.9-9.9 7.3-5.3 17.4-14.8 24.3-21.8.3-.4.6-.7.9-1 39.3-40.5 61.1-67.8 89.8-112.4 35.2-54.7 59.2-108.6 71.6-160.2 5.8-24.4 6.7-46.5 2.7-65.6-4-18.9-12.9-34.3-26.3-45.9C427 38.9 405.1 30.8 381 29.6c-26.7-1.3-54.5 5.6-80.5 20.1-10.3 5.7-20.9 11.8-32.4 18.6l-.3.1c-11.2 6.2-24.8 6.2-35.9-.1l-.1-.1c-11.5-6.8-22-12.9-32.2-18.5-25.9-14.5-53.8-21.4-80.3-20-24.1 1.2-46 9.4-61.8 22.9C43.9 64.2 35 79.6 31 98.5c-4 19-3.2 41.1 2.6 65.6C46 215.7 70 269.6 105.1 324.2c28.7 44.5 50.5 71.8 89.8 112.4 6.8 7.1 17.6 17.3 25.3 22.8 6.5 4.8 14 8.2 21.9 9.9l.4.1c1.8.4 3.6.6 5.4.8H248.2c.6 0 1.2 0 1.9-.1z" style="fill: #006aff;"/></svg>
